<svg id="Layer_1" data-name="Layer 1" xmlns="http://www.w3.org/2000/svg" xmlns:xlink="http://www.w3.org/1999/xlink" viewBox="0 0 192 192"><defs><style>.cls-1{fill:url(#linear-gradient);}.cls-2{fill:#fff;}</style><linearGradient id="linear-gradient" y1="96" x2="192" y2="96" gradientUnits="userSpaceOnUse"><stop offset="0" stop-color="#d7d746"/><stop offset="1" stop-color="#b3ce8c"/></linearGradient></defs><title>Logos Gallery</title><rect class="cls-1" width="192" height="192" rx="96" ry="96"/><g id="_4" data-name="4"><path class="cls-2" d="M96.49,64.07c-.33,0-.65,0-1,0A31.69,31.69,0,0,1,64.44,95.49c0,.34,0,.67,0,1a31.67,31.67,0,0,1,31,31l1,0a31.69,31.69,0,0,1,31.41-31.08c0-.33,0-.65,0-1A31.71,31.71,0,0,1,96.49,64.07"/><path class="cls-2" d="M64.45,96.51a31.76,31.76,0,1,0,31,31,31.67,31.67,0,0,1-31-31"/><path class="cls-2" d="M105.78,41.3a31.65,31.65,0,0,0-9.29,22.77,31.71,31.71,0,0,1,31.44,31.44,31.76,31.76,0,1,0-22.15-54.2"/><path class="cls-2" d="M96.51,127.56a31.75,31.75,0,1,0,31.41-31.07,31.7,31.7,0,0,1-31.41,31.07"/><path class="cls-2" d="M95.51,64.09A31.77,31.77,0,1,0,64.44,95.49,31.7,31.7,0,0,1,95.51,64.09"/></g></svg>