<svg viewBox="0 0 192 192" xmlns="http://www.w3.org/2000/svg" xmlns:xlink="http://www.w3.org/1999/xlink"><linearGradient id="a" gradientUnits="userSpaceOnUse" x2="192" y1="96" y2="96"><stop offset="0" stop-color="#d7d746"/><stop offset="1" stop-color="#b3ce8c"/></linearGradient><rect fill="url(#a)" height="192" rx="96" width="192"/><g fill="#fff"><path d="m96.49 64.07c-.33 0-.65 0-1 0a31.69 31.69 0 0 1 -31.05 31.42v1a31.67 31.67 0 0 1 31 31h1a31.69 31.69 0 0 1 31.41-31.08c0-.33 0-.65 0-1a31.71 31.71 0 0 1 -31.36-31.34"/><path d="m64.45 96.51a31.76 31.76 0 1 0 31 31 31.67 31.67 0 0 1 -31-31"/><path d="m105.78 41.3a31.65 31.65 0 0 0 -9.29 22.77 31.71 31.71 0 0 1 31.44 31.44 31.76 31.76 0 1 0 -22.15-54.2"/><path d="m96.51 127.56a31.75 31.75 0 1 0 31.41-31.07 31.7 31.7 0 0 1 -31.41 31.07"/><path d="m95.51 64.09a31.77 31.77 0 1 0 -31.07 31.4 31.7 31.7 0 0 1 31.07-31.4"/></g></svg>