<svg viewBox="0 0 192 192" xmlns="http://www.w3.org/2000/svg"><path d="m0 69.4c0-14.8 21.8-37.2 55.8-42.9 5.2-15.3 21.9-26.5 41.8-26.5 20.2 0 29.3 9.6 43.1 24.9 33 0 51.3 20.8 51.3 34.8 0 15.6-47 14.7-52.8 14.9-5.7.2-14.5 4.9-13.1 10.2 2.7 10.7-24.3 51.6-24.3 67.5s2.2 39.7 2.2 39.7h-29.3s1-33.8 1-39.7c0-5.8 9.1-48.6-35.9-62.7-1.6-.4-3.2-.9-4.7-1.3-22.5-6.7-35.1-7.4-35.1-18.9zm117.5 14.2c1.8-3.5-7.2-3.5-7.2-3.5l-10 27.7c0 .1 15.4-20.7 17.2-24.2zm-28.5-10-13.5 6.2 15.2 16.2zm-17.4 23.8-8.4-11-21-2.5z"/><path d="m117.2 176.4-.1 15.5 15.5.1 46.1-45.5-15.4-15.6zm73.6-41.8c1.6-1.6 1.6-4.2 0-5.8l-9.6-9.7c-1.6-1.6-4.2-1.6-5.8 0l-7.6 7.5 15.4 15.6c0-.1 7.6-7.6 7.6-7.6z"/></svg>