<?xml version="1.0" encoding="utf-8"?>
<!-- Generator: Adobe Illustrator 21.0.2, SVG Export Plug-In . SVG Version: 6.00 Build 0)  -->
<svg version="1.2" baseProfile="tiny" id="Layer_1" xmlns="http://www.w3.org/2000/svg" xmlns:xlink="http://www.w3.org/1999/xlink"
	 x="0px" y="0px" viewBox="0 0 192 192" xml:space="preserve">
<g>
	<path d="M0,69.4c0-14.8,21.8-37.2,55.8-42.9C61,11.2,77.7,0,97.6,0c20.2,0,29.3,9.6,43.1,24.9c33,0,51.3,20.8,51.3,34.8
		c0,15.6-47,14.7-52.8,14.9c-5.7,0.2-14.5,4.9-13.1,10.2c2.7,10.7-24.3,51.6-24.3,67.5S104,192,104,192H74.7c0,0,1-33.8,1-39.7
		c0-5.8,9.1-48.6-35.9-62.7c-1.6-0.4-3.2-0.9-4.7-1.3c0,0,0,0,0,0h0C12.6,81.6,0,80.9,0,69.4z M117.5,83.6c1.8-3.5-7.2-3.5-7.2-3.5
		l-10,27.7C100.3,107.9,115.7,87.1,117.5,83.6z M89,73.6l-13.5,6.2L90.7,96L89,73.6z M71.6,97.4l-8.4-11l-21-2.5L71.6,97.4z"/>
	<path d="M117.2,176.4l-0.1,15.5l15.5,0.1l46.1-45.5l-15.4-15.6L117.2,176.4z M190.8,134.6c1.6-1.6,1.6-4.2,0-5.8l-9.6-9.7
		c-1.6-1.6-4.2-1.6-5.8,0l-7.6,7.5l15.4,15.6C183.2,142.1,190.8,134.6,190.8,134.6z"/>
</g>
</svg>
